<svg width="309" height="28" viewBox="0 0 309 28" fill="none" xmlns="http://www.w3.org/2000/svg">
<path d="M22.716 2.304L13.248 27.396H9.46799L-7.38353e-06 2.304H3.49199L11.376 23.94L19.26 2.304H22.716ZM28.7201 4.464C28.0961 4.464 27.5681 4.248 27.1361 3.816C26.7041 3.384 26.4881 2.856 26.4881 2.232C26.4881 1.608 26.7041 1.08 27.1361 0.648003C27.5681 0.216002 28.0961 2.38419e-06 28.7201 2.38419e-06C29.3201 2.38419e-06 29.8241 0.216002 30.2321 0.648003C30.6641 1.08 30.8801 1.608 30.8801 2.232C30.8801 2.856 30.6641 3.384 30.2321 3.816C29.8241 4.248 29.3201 4.464 28.7201 4.464ZM30.3041 7.668V27.396H27.0281V7.668H30.3041ZM46.2195 7.308C48.6195 7.308 50.5635 8.04 52.0515 9.504C53.5395 10.944 54.2835 13.032 54.2835 15.768V27.396H51.0435V16.236C51.0435 14.268 50.5515 12.768 49.5675 11.736C48.5835 10.68 47.2395 10.152 45.5355 10.152C43.8075 10.152 42.4275 10.692 41.3955 11.772C40.3875 12.852 39.8835 14.424 39.8835 16.488V27.396H36.6075V7.668H39.8835V10.476C40.5315 9.468 41.4075 8.688 42.5115 8.136C43.6395 7.584 44.8755 7.308 46.2195 7.308ZM62.0468 4.464C61.4228 4.464 60.8948 4.248 60.4628 3.816C60.0308 3.384 59.8148 2.856 59.8148 2.232C59.8148 1.608 60.0308 1.08 60.4628 0.648003C60.8948 0.216002 61.4228 2.38419e-06 62.0468 2.38419e-06C62.6468 2.38419e-06 63.1508 0.216002 63.5588 0.648003C63.9908 1.08 64.2068 1.608 64.2068 2.232C64.2068 2.856 63.9908 3.384 63.5588 3.816C63.1508 4.248 62.6468 4.464 62.0468 4.464ZM63.6308 7.668V27.396H60.3548V7.668H63.6308ZM68.7102 17.496C68.7102 15.456 69.1182 13.68 69.9342 12.168C70.7502 10.632 71.8782 9.444 73.3182 8.604C74.7822 7.764 76.4502 7.344 78.3222 7.344C80.7462 7.344 82.7382 7.932 84.2982 9.108C85.8822 10.284 86.9262 11.916 87.4302 14.004H83.9022C83.5662 12.804 82.9062 11.856 81.9222 11.16C80.9622 10.464 79.7622 10.116 78.3222 10.116C76.4502 10.116 74.9382 10.764 73.7862 12.06C72.6342 13.332 72.0582 15.144 72.0582 17.496C72.0582 19.872 72.6342 21.708 73.7862 23.004C74.9382 24.3 76.4502 24.948 78.3222 24.948C79.7622 24.948 80.9622 24.612 81.9222 23.94C82.8822 23.268 83.5422 22.308 83.9022 21.06H87.4302C86.9022 23.076 85.8462 24.696 84.2622 25.92C82.6782 27.12 80.6982 27.72 78.3222 27.72C76.4502 27.72 74.7822 27.3 73.3182 26.46C71.8782 25.62 70.7502 24.432 69.9342 22.896C69.1182 21.36 68.7102 19.56 68.7102 17.496ZM94.2134 4.464C93.5894 4.464 93.0614 4.248 92.6294 3.816C92.1974 3.384 91.9814 2.856 91.9814 2.232C91.9814 1.608 92.1974 1.08 92.6294 0.648003C93.0614 0.216002 93.5894 2.38419e-06 94.2134 2.38419e-06C94.8134 2.38419e-06 95.3174 0.216002 95.7254 0.648003C96.1574 1.08 96.3734 1.608 96.3734 2.232C96.3734 2.856 96.1574 3.384 95.7254 3.816C95.3174 4.248 94.8134 4.464 94.2134 4.464ZM95.7974 7.668V27.396H92.5214V7.668H95.7974ZM119.597 7.668V27.396H116.321V24.48C115.697 25.488 114.821 26.28 113.693 26.856C112.589 27.408 111.365 27.684 110.021 27.684C108.485 27.684 107.105 27.372 105.881 26.748C104.657 26.1 103.685 25.14 102.965 23.868C102.269 22.596 101.921 21.048 101.921 19.224V7.668H105.161V18.792C105.161 20.736 105.653 22.236 106.637 23.292C107.621 24.324 108.965 24.84 110.669 24.84C112.421 24.84 113.801 24.3 114.809 23.22C115.817 22.14 116.321 20.568 116.321 18.504V7.668H119.597ZM132.832 27.72C131.32 27.72 129.964 27.468 128.764 26.964C127.564 26.436 126.616 25.716 125.92 24.804C125.224 23.868 124.84 22.8 124.768 21.6H128.152C128.248 22.584 128.704 23.388 129.52 24.012C130.36 24.636 131.452 24.948 132.796 24.948C134.044 24.948 135.028 24.672 135.748 24.12C136.468 23.568 136.828 22.872 136.828 22.032C136.828 21.168 136.444 20.532 135.676 20.124C134.908 19.692 133.72 19.272 132.112 18.864C130.648 18.48 129.448 18.096 128.512 17.712C127.6 17.304 126.808 16.716 126.136 15.948C125.488 15.156 125.164 14.124 125.164 12.852C125.164 11.844 125.464 10.92 126.064 10.08C126.664 9.24 127.516 8.58 128.62 8.1C129.724 7.596 130.984 7.344 132.4 7.344C134.584 7.344 136.348 7.896 137.692 9C139.036 10.104 139.756 11.616 139.852 13.536H136.576C136.504 12.504 136.084 11.676 135.316 11.052C134.572 10.428 133.564 10.116 132.292 10.116C131.116 10.116 130.18 10.368 129.484 10.872C128.788 11.376 128.44 12.036 128.44 12.852C128.44 13.5 128.644 14.04 129.052 14.472C129.484 14.88 130.012 15.216 130.636 15.48C131.284 15.72 132.172 15.996 133.3 16.308C134.716 16.692 135.868 17.076 136.756 17.46C137.644 17.82 138.4 18.372 139.024 19.116C139.672 19.86 140.008 20.832 140.032 22.032C140.032 23.112 139.732 24.084 139.132 24.948C138.532 25.812 137.68 26.496 136.576 27C135.496 27.48 134.248 27.72 132.832 27.72ZM168.906 27.396L162.93 17.136H158.97V27.396H155.694V2.304H163.794C165.69 2.304 167.286 2.628 168.582 3.276C169.902 3.924 170.886 4.8 171.534 5.904C172.182 7.008 172.506 8.268 172.506 9.684C172.506 11.412 172.002 12.936 170.994 14.256C170.01 15.576 168.522 16.452 166.53 16.884L172.83 27.396H168.906ZM158.97 14.508H163.794C165.57 14.508 166.902 14.076 167.79 13.212C168.678 12.324 169.122 11.148 169.122 9.684C169.122 8.196 168.678 7.044 167.79 6.228C166.926 5.412 165.594 5.004 163.794 5.004H158.97V14.508ZM196.317 16.776C196.317 17.4 196.281 18.06 196.209 18.756H180.441C180.561 20.7 181.221 22.224 182.421 23.328C183.645 24.408 185.121 24.948 186.849 24.948C188.265 24.948 189.441 24.624 190.377 23.976C191.337 23.304 192.009 22.416 192.393 21.312H195.921C195.393 23.208 194.337 24.756 192.753 25.956C191.169 27.132 189.201 27.72 186.849 27.72C184.977 27.72 183.297 27.3 181.809 26.46C180.345 25.62 179.193 24.432 178.353 22.896C177.513 21.336 177.093 19.536 177.093 17.496C177.093 15.456 177.501 13.668 178.317 12.132C179.133 10.596 180.273 9.42 181.737 8.604C183.225 7.764 184.929 7.344 186.849 7.344C188.721 7.344 190.377 7.752 191.817 8.568C193.257 9.384 194.361 10.512 195.129 11.952C195.921 13.368 196.317 14.976 196.317 16.776ZM192.933 16.092C192.933 14.844 192.657 13.776 192.105 12.888C191.553 11.976 190.797 11.292 189.837 10.836C188.901 10.356 187.857 10.116 186.705 10.116C185.049 10.116 183.633 10.644 182.457 11.7C181.305 12.756 180.645 14.22 180.477 16.092H192.933ZM203.809 24.696H213.493V27.396H200.065V24.696L209.641 10.332H200.137V7.668H213.421V10.332L203.809 24.696ZM236.464 16.776C236.464 17.4 236.428 18.06 236.356 18.756H220.588C220.708 20.7 221.368 22.224 222.568 23.328C223.792 24.408 225.268 24.948 226.996 24.948C228.412 24.948 229.588 24.624 230.524 23.976C231.484 23.304 232.156 22.416 232.54 21.312H236.068C235.54 23.208 234.484 24.756 232.9 25.956C231.316 27.132 229.348 27.72 226.996 27.72C225.124 27.72 223.444 27.3 221.956 26.46C220.492 25.62 219.34 24.432 218.5 22.896C217.66 21.336 217.24 19.536 217.24 17.496C217.24 15.456 217.648 13.668 218.464 12.132C219.28 10.596 220.42 9.42 221.884 8.604C223.372 7.764 225.076 7.344 226.996 7.344C228.868 7.344 230.524 7.752 231.964 8.568C233.404 9.384 234.508 10.512 235.276 11.952C236.068 13.368 236.464 14.976 236.464 16.776ZM233.08 16.092C233.08 14.844 232.804 13.776 232.252 12.888C231.7 11.976 230.944 11.292 229.984 10.836C229.048 10.356 228.004 10.116 226.852 10.116C225.196 10.116 223.78 10.644 222.604 11.7C221.452 12.756 220.792 14.22 220.624 16.092H233.08ZM251.12 7.308C253.52 7.308 255.464 8.04 256.952 9.504C258.44 10.944 259.184 13.032 259.184 15.768V27.396H255.944V16.236C255.944 14.268 255.452 12.768 254.468 11.736C253.484 10.68 252.14 10.152 250.436 10.152C248.708 10.152 247.328 10.692 246.296 11.772C245.288 12.852 244.784 14.424 244.784 16.488V27.396H241.508V7.668H244.784V10.476C245.432 9.468 246.308 8.688 247.412 8.136C248.54 7.584 249.776 7.308 251.12 7.308ZM264.031 17.46C264.031 15.444 264.439 13.68 265.255 12.168C266.071 10.632 267.187 9.444 268.603 8.604C270.043 7.764 271.651 7.344 273.427 7.344C274.963 7.344 276.391 7.704 277.711 8.424C279.031 9.12 280.039 10.044 280.735 11.196V0.756003H284.047V27.396H280.735V23.688C280.087 24.864 279.127 25.836 277.855 26.604C276.583 27.348 275.095 27.72 273.391 27.72C271.639 27.72 270.043 27.288 268.603 26.424C267.187 25.56 266.071 24.348 265.255 22.788C264.439 21.228 264.031 19.452 264.031 17.46ZM280.735 17.496C280.735 16.008 280.435 14.712 279.835 13.608C279.235 12.504 278.419 11.664 277.387 11.088C276.379 10.488 275.263 10.188 274.039 10.188C272.815 10.188 271.699 10.476 270.691 11.052C269.683 11.628 268.879 12.468 268.279 13.572C267.679 14.676 267.379 15.972 267.379 17.46C267.379 18.972 267.679 20.292 268.279 21.42C268.879 22.524 269.683 23.376 270.691 23.976C271.699 24.552 272.815 24.84 274.039 24.84C275.263 24.84 276.379 24.552 277.387 23.976C278.419 23.376 279.235 22.524 279.835 21.42C280.435 20.292 280.735 18.984 280.735 17.496ZM308.303 16.776C308.303 17.4 308.267 18.06 308.195 18.756H292.427C292.547 20.7 293.207 22.224 294.407 23.328C295.631 24.408 297.107 24.948 298.835 24.948C300.251 24.948 301.427 24.624 302.363 23.976C303.323 23.304 303.995 22.416 304.379 21.312H307.907C307.379 23.208 306.323 24.756 304.739 25.956C303.155 27.132 301.187 27.72 298.835 27.72C296.963 27.72 295.283 27.3 293.795 26.46C292.331 25.62 291.179 24.432 290.339 22.896C289.499 21.336 289.079 19.536 289.079 17.496C289.079 15.456 289.487 13.668 290.303 12.132C291.119 10.596 292.259 9.42 293.723 8.604C295.211 7.764 296.915 7.344 298.835 7.344C300.707 7.344 302.363 7.752 303.803 8.568C305.243 9.384 306.347 10.512 307.115 11.952C307.907 13.368 308.303 14.976 308.303 16.776ZM304.919 16.092C304.919 14.844 304.643 13.776 304.091 12.888C303.539 11.976 302.783 11.292 301.823 10.836C300.887 10.356 299.843 10.116 298.691 10.116C297.035 10.116 295.619 10.644 294.443 11.7C293.291 12.756 292.631 14.22 292.463 16.092H304.919Z" fill="white"/>
</svg>
