<svg width="315" height="26" viewBox="0 0 315 26" fill="none" xmlns="http://www.w3.org/2000/svg">
<path d="M22.716 0.323999L13.248 25.416H9.46799L-7.38353e-06 0.323999H3.49199L11.376 21.96L19.26 0.323999H22.716ZM30.3041 0.323999V25.416H27.0281V0.323999H30.3041ZM56.3355 25.416H53.0595L39.8835 5.436V25.416H36.6075V0.288H39.8835L53.0595 20.232V0.288H56.3355V25.416ZM65.916 0.323999V25.416H62.64V0.323999H65.916ZM70.9954 12.852C70.9954 10.404 71.5474 8.208 72.6514 6.264C73.7554 4.296 75.2554 2.76 77.1514 1.656C79.0714 0.551999 81.1954 -7.15256e-07 83.5234 -7.15256e-07C86.2594 -7.15256e-07 88.6474 0.659999 90.6874 1.98C92.7274 3.3 94.2154 5.172 95.1514 7.596H91.2274C90.5314 6.084 89.5234 4.92 88.2034 4.104C86.9074 3.288 85.3474 2.88 83.5234 2.88C81.7714 2.88 80.1994 3.288 78.8074 4.104C77.4154 4.92 76.3234 6.084 75.5314 7.596C74.7394 9.084 74.3434 10.836 74.3434 12.852C74.3434 14.844 74.7394 16.596 75.5314 18.108C76.3234 19.596 77.4154 20.748 78.8074 21.564C80.1994 22.38 81.7714 22.788 83.5234 22.788C85.3474 22.788 86.9074 22.392 88.2034 21.6C89.5234 20.784 90.5314 19.62 91.2274 18.108H95.1514C94.2154 20.508 92.7274 22.368 90.6874 23.688C88.6474 24.984 86.2594 25.632 83.5234 25.632C81.1954 25.632 79.0714 25.092 77.1514 24.012C75.2554 22.908 73.7554 21.384 72.6514 19.44C71.5474 17.496 70.9954 15.3 70.9954 12.852ZM104.024 0.323999V25.416H100.748V0.323999H104.024ZM113.531 0.323999V16.2C113.531 18.432 114.071 20.088 115.151 21.168C116.255 22.248 117.779 22.788 119.723 22.788C121.643 22.788 123.143 22.248 124.223 21.168C125.327 20.088 125.879 18.432 125.879 16.2V0.323999H129.155V16.164C129.155 18.252 128.735 20.016 127.895 21.456C127.055 22.872 125.915 23.928 124.475 24.624C123.059 25.32 121.463 25.668 119.687 25.668C117.911 25.668 116.303 25.32 114.863 24.624C113.447 23.928 112.319 22.872 111.479 21.456C110.663 20.016 110.255 18.252 110.255 16.164V0.323999H113.531ZM143.296 25.668C141.64 25.668 140.152 25.38 138.832 24.804C137.536 24.204 136.516 23.388 135.772 22.356C135.028 21.3 134.644 20.088 134.62 18.72H138.112C138.232 19.896 138.712 20.892 139.552 21.708C140.416 22.5 141.664 22.896 143.296 22.896C144.856 22.896 146.08 22.512 146.968 21.744C147.88 20.952 148.336 19.944 148.336 18.72C148.336 17.76 148.072 16.98 147.544 16.38C147.016 15.78 146.356 15.324 145.564 15.012C144.772 14.7 143.704 14.364 142.36 14.004C140.704 13.572 139.372 13.14 138.364 12.708C137.38 12.276 136.528 11.604 135.808 10.692C135.112 9.756 134.764 8.508 134.764 6.948C134.764 5.58 135.112 4.368 135.808 3.312C136.504 2.256 137.476 1.44 138.724 0.863999C139.996 0.287999 141.448 -7.15256e-07 143.08 -7.15256e-07C145.432 -7.15256e-07 147.352 0.588 148.84 1.764C150.352 2.94 151.204 4.5 151.396 6.444H147.796C147.676 5.484 147.172 4.644 146.284 3.924C145.396 3.18 144.22 2.808 142.756 2.808C141.388 2.808 140.272 3.168 139.408 3.888C138.544 4.584 138.112 5.568 138.112 6.84C138.112 7.752 138.364 8.496 138.868 9.072C139.396 9.648 140.032 10.092 140.776 10.404C141.544 10.692 142.612 11.028 143.98 11.412C145.636 11.868 146.968 12.324 147.976 12.78C148.984 13.212 149.848 13.896 150.568 14.832C151.288 15.744 151.648 16.992 151.648 18.576C151.648 19.8 151.324 20.952 150.676 22.032C150.028 23.112 149.068 23.988 147.796 24.66C146.524 25.332 145.024 25.668 143.296 25.668ZM180.719 25.416L174.743 15.156H170.783V25.416H167.507V0.323999H175.607C177.503 0.323999 179.099 0.648 180.395 1.296C181.715 1.944 182.699 2.82 183.347 3.924C183.995 5.028 184.319 6.288 184.319 7.704C184.319 9.432 183.815 10.956 182.807 12.276C181.823 13.596 180.335 14.472 178.343 14.904L184.643 25.416H180.719ZM170.783 12.528H175.607C177.383 12.528 178.715 12.096 179.603 11.232C180.491 10.344 180.935 9.168 180.935 7.704C180.935 6.216 180.491 5.064 179.603 4.248C178.739 3.432 177.407 3.024 175.607 3.024H170.783V12.528ZM193.405 2.988V11.376H202.549V14.076H193.405V22.716H203.629V25.416H190.129V0.288H203.629V2.988H193.405ZM212.078 22.572H224.318V25.416H208.19V22.824L220.358 3.168H208.334V0.323999H224.246V2.916L212.078 22.572ZM232.779 2.988V11.376H241.923V14.076H232.779V22.716H243.003V25.416H229.503V0.288H243.003V2.988H232.779ZM268.408 25.416H265.132L251.956 5.436V25.416H248.68V0.288H251.956L265.132 20.232V0.288H268.408V25.416ZM282.524 0.323999C285.26 0.323999 287.624 0.839999 289.616 1.872C291.632 2.88 293.168 4.332 294.224 6.228C295.304 8.124 295.844 10.356 295.844 12.924C295.844 15.492 295.304 17.724 294.224 19.62C293.168 21.492 291.632 22.932 289.616 23.94C287.624 24.924 285.26 25.416 282.524 25.416H274.712V0.323999H282.524ZM282.524 22.716C285.764 22.716 288.236 21.864 289.94 20.16C291.644 18.432 292.496 16.02 292.496 12.924C292.496 9.804 291.632 7.368 289.904 5.616C288.2 3.864 285.74 2.988 282.524 2.988H277.988V22.716H282.524ZM304.161 2.988V11.376H313.305V14.076H304.161V22.716H314.385V25.416H300.885V0.288H314.385V2.988H304.161Z" fill="white"/>
</svg>
